<?xml version="1.0" standalone="no"?>

<svg version="1.0" xmlns="http://www.w3.org/2000/svg"
 width="512.000000pt" height="512.000000pt" viewBox="0 0 512.000000 512.000000"
 preserveAspectRatio="xMidYMid meet">

<g transform="translate(0.000000,512.000000) scale(0.100000,-0.100000)"
fill="#000000" stroke="none">
<path d="M818 2822 c-462 -463 -745 -754 -762 -783 -35 -61 -59 -179 -51 -244
22 -185 135 -322 280 -342 25 -3 79 0 119 7 70 12 77 11 120 -10 25 -12 56
-36 68 -53 24 -33 25 -50 17 -223 -5 -112 17 -147 223 -350 101 -99 190 -178
213 -189 51 -24 137 -30 205 -16 114 24 209 -42 211 -146 1 -21 -2 -75 -6
-120 -8 -80 -7 -85 24 -147 101 -206 415 -262 613 -108 29 23 374 362 766 754
l712 713 -897 891 c-494 489 -948 938 -1009 996 l-110 107 -736 -737z m910
-207 c49 -22 113 -82 448 -418 450 -451 439 -436 439 -587 0 -84 -4 -101 -27
-145 -33 -62 -444 -474 -503 -504 -92 -47 -204 -47 -304 0 -34 16 -149 125
-433 408 -446 445 -443 441 -443 591 0 138 17 165 258 406 111 111 221 214
245 229 93 61 215 68 320 20z"/>
</g>
</svg>
